<?xml version="1.0" encoding="UTF-8"?>
<svg id="Camada_2" data-name="Camada 2" xmlns="http://www.w3.org/2000/svg" viewBox="0 0 922.33 698.66">
  <defs>
    <style>
      .cls-1 {
        fill: #ffde00;
      }

      .cls-2 {
        fill: #003588;
      }

      .cls-3 {
        fill: #fff;
      }
    </style>
  </defs>
  <g id="Camada_1-2" data-name="Camada 1">
    <g>
      <path class="cls-2" d="M710.21,262.86l.19,6.4,5.03.14c1.16.03.75,3.48.51,5.19l5.92.75c-.64.74-.94,4.91.25,4.96l10.84.43.32,4.89c.07,1.11,3.13.82,5.09.61l.81,5.58,4.14.54c1.06.14.88,3.3.8,4.77l6.31,1.76c-.16,1.31-.47,4.78.51,4.77l5.14-.06-.03,5.56,11.65-.06-.91,5.47h-21.98s-.43-5.46-.43-5.46l-11.32.07-.19-5.82c-1.52.14-4.69.43-4.8-.7l-.52-5.02h-11.04s-.82-5.63-.82-5.63l-5.73.18.09-5.98-11.11.08.06-11.21-11.98-.27c.32-2.12.66-5.47-.48-5.53l-4.74-.24-.03-5.73-11.76.11.03-11.26,5.73-.42c.09-2.47.1-4.4.68-5.35s4.36-.59,4.49.52l.57,4.9,11.09.33.67,5.63,5.68-.13.24,5.43,11.01-.22Z"/>
      <g>
        <path class="cls-1" d="M460.37,331.59c-19.21,27.79-33.02,51.78-42.32,69.13-13.18,24.59-15.21,31.92-15.65,39.4-1.24,21.32,10.57,42.49,38.68,69.35,52.79,50.44,121.14,80.81,166.05,97.24-7.74-15.86-19.59-39.99-34.34-69.36-22.71-45.2-35.22-68.78-53.92-107.66-26.98-56.1-26.03-59.15-31.2-69.67-.82-1.66-2.45-4.86-3.9-9.53-1.88-6.05-1.53-8.35-2.7-10.8-1.7-3.55-6.56-7.34-20.7-8.1Z"/>
        <path class="cls-1" d="M134.57,309.09c4.66,10.95,73.42.03,81,0,3.49-.01,4.4,0,8.1,0,25.25,0,82.23-.63,204.3-2.7,1.28-4.67,2.63-11.95,1.2-20.4-2.12-12.58-8.89-18.8-19.2-35.4-9.69-15.61-7.99-17.01-14.6-27.32-9.97-15.54-25.31-30.21-38.5-36.58-43.54-21.04-108.59,26.65-154.5,60.3-8.79,6.44-16.46,12.89-31.8,25.8-36.83,30.99-36.65,34.77-36,36.3Z"/>
        <path class="cls-1" d="M586.37,139.59c12.43-16.28,26.21-31.57,37.8-48.45,4.9-7.14,12.07-18.01,24.6-30.15,7.96-7.71,15.3-13.25,20.4-16.8,8.52,38.26,6.56,66.94,3,86.4-1.7,9.27-3.36,14.28-7.8,36.6-7.98,40.09-6.47,43.34-10.2,58.2-3.95,15.74-15.79,62.97-50.4,79.2-12.28,5.76-20.55,3.13-58.2,2.4-35.94-.7-65.66-1.96-86.4-3,26.6-33.94,47.93-61.5,62.28-80.12,40.06-51.97,60.08-77.95,64.92-84.28Z"/>
        <g>
          <g>
            <path d="M515.42,217.35l-5.46.37-.28,5.62-5.58.17.1,11.1-5.79.37-.37,4.88c-.08,1.12-3.06.87-5.26.66l-.12,5.69-5.82.47-.24,11.2-4.95.17c-.93.03-.72,3.11-.54,4.87l-5.73.5-.19,11.52-5.28.41c-1.07.08-.59,3.45-.2,4.45.39,1,3.08.93,4.28.76,1.06-.16,1.34-2.42,1.32-5.14l5.64-.7.17-11.4,5.51-.29.45-4.42c.12-1.15,3.38-1.05,5.04-.8l.39-5.72,5.63-.44.1-10.47,5.85-1.01c-.05-1.3-.28-4.58.75-4.78l4.55-.89.75-4.78c.17-1.08,3.39-.73,5.1-.56l-.17,10.98-4.51.39c-1.11.1-.82,3.13-.52,5.3l-5.92.52-.25,11.39-5.62-.03-.34,4.93c-.08,1.09-3.4.69-5.35.44l-.24,11.64-4.73.36c-1.16.09-1,3.45-.8,5.11l-5.71.38-.12,11.78,5.78-.19.29,11.28h102.26s.86-5.8.86-5.8l16.97.1.12-5.01c.03-1.14,3.36-.79,5.37-.49l.48-5.83,5.86-.22-.49-5.34,5.12-.6c1.09-.13.89-3.65.76-4.91l5.73-.41.11-11.43,5.95-.19-.04-11.47,5.21-.45.15-10.86,5.81-.17.04-17.04,5.79-.18v-22.49s5.57-.54,5.57-.54l-.12-39.69,5.72-.25.11-22.7,5.78-.26.03-89.92c.11-.82-4.31-2.1-4.61-.98l-1.3,4.95-5.53.33-.29,5.63-4.88.18c-1.19.04-.82,3.96-.61,5.31l-5.55.8-.55,4.42c-.14,1.11-3.72.77-5.23.36l-.03-10.79,5.62-.57.25-5.5h5.03c1.15,0,.57-3.69.25-5.38l5.7-.73.46-4.37c.12-1.15,3.54-1.04,4.98-.88l.65-5.7,4.89-.09c1.14-.02.76-3.31.51-5.37l5.69-.63.49-5.07c.1-1.06,3.57-.46,5.45-.21l.06,50.98-5.79.7.12,96.56-5.79.63.04,34.16-5.75.15-.11,22.69-5.78.19.02,10.71-5.66.95-.05,16.81-5.65.17v11.32s-5.84.22-5.84.22c.23,1.27.83,5.06-.28,5.24l-5.26.85-.17,10.97-5.03.15c-1.13.03-.82,3.22-.56,5.2l-5.51.62-.44,4.53c-.11,1.15-3.32.98-5.24.71l-.69,5.75-5.64.44.14,4.36c.03,1.09-3.01,1.25-5.17,1.12l-.65,5.83-85.48-.09-.26,5.81h39.87s.52,5.61.52,5.61l142.41-.02.56,5.68h102.97s.4,11.28.4,11.28l-6.11.39-.06,4.91c-.01,1.15-3.26.8-5.31.5l-.54,5.83-4.51.33c-1.14.08-.93,2.96-.64,5.34l-11.31.28-.52,5.83-5.79-.19-.08,5.03c-.02,1.14-3.66.77-5.05.6l-.42,5.75-11.46.02-.54,5.19c-.11,1.1-2.97.5-4.75.17l-.75,6.02-11.17.16-.12,5.03c-.03,1.11-3.33.7-5.32.41l-.46,6.02-11.12-.04-.28,5.38-5.52.25-.11,5.71-11.24.04-.34,5.77-11.34-.05.05,5.71-11.09.02-.33,5.57-5.72.15-.09,5.71-11.08.02-.42,5.8-16.8-.02-.34,5.66-22.52-.03-.57,5.75-50.93-.06-.41-5.59-22.83-.07-.02-5.04c0-1.12-3.41-.65-5.29-.31l-.48-6.05-5.7-.17.29-11.17-5.96-.38-.25-4.52c-.06-1.04-2.9-.86-5.21-.71l-.41-11.45-5.38-.68-.38-4.51c-.1-1.13-3.37-.87-5.44-.65l-.28-11.37-5.9-.49.15-5.59-5.01.33-.39.82v10.01s5.35.3,5.35.3l.22,11.35,5.57.66.17,11.02,5.7.24.13,16.08.32.62,4.54.59c1.03.13.75,3.13.56,4.99l5.67.8.31,11.09c2.33.12,4.87.52,5.69,1.16l-.14,15.79.35.34,5.49.1v10.67s.45.48.45.48h5.36s.11,11.56.11,11.56l.83-.08,4.67-.34-.03,11.77-5.63-.1.08-10.31-.62-.85h-5.2s0-11.1,0-11.1l-.59-.52-5.12-.25-.05-10.08-.97-.89-4.88-.27.29-11.37-5.83-.2-.06-10.95-5.7-.35-.11-11.07-.7-.22-5.01-.25v-11.11s-5.54-.4-5.54-.4l-.2-11.04-5.56-.41.02-11.18-5.76-.31-.15-11.29-5.65-.25-.08-11-5.59-.51.1-10.63-5.64-.47-.16-11.37-5.74-.28-.14-11.54-10.24.34-18.57.62.15,10.66-5.83.14-.11,11.55-4.97-.15-.69.11-.12,22.49-5.68.22-.02,11.41-5.46.31.04,11.54-5.8-.18-.15,11.28-5.85.19-.03,11.17-5.54.2.09,16.96,5.52.08.1,11.49,5.72.21.02,11.18,5.83.35.21,11.09,5.37.17-.06,11.21,5.92.51c-.27,1.88-.58,5.26.51,5.28l5.06.1.26,5.61,5.47.23.5,5.98,5.3-.35.41,5.88c1.73-.27,5.15-.77,5.17.33l.11,5.13,11.59.2.35,5.71,5.14-.2.51,5.79,11.39.17c-.25,2.05-.47,5.27.65,5.4l4.45.52.28,5.6,11.5.08.68,5.46h10.87s-.09,5.62-.09,5.62l5.71.25.19,5.63,11.41.15.27,5.67,10.95.07c-.04,1.31-.35,5.19.77,5.25l5.12.26.33,5.62,11.16.25.08,5.67,11.35.07.29,5.74,11.11.12.37,5.35,11.13-.13c.17-1.37.81-5.05-.26-5.14l-5.37-.42v-11.2s-5.7-.39-5.7-.39l-.07-16.83-5.74-.29-.11-16.17-.85-.77-4.57-.21-.03-11.12-.35-.36-5.38.32v-10.96s-.58-.48-.58-.48l-5.08-.3v-11.37s5.59.6,5.59.6l.06,10.53.47.45,4.84.05.32,10.45.91.55,4.94.55-.25,10.86.22.45h5.63s.16,11.45.16,11.45l5.5.46-.02,10.7,5.66.52v10.97s5.76.26,5.76.26l.08,11.42,5.78.28-.03,10.89,5.62.49.12,10.99-11.25.19-.5-5.73-11.18.02-.21-5.66-16.79.05-.2-5.84-11.15.04.02-5.95-11.57.29-.38-5.75-4.87-.18c-1.12-.04-.59-3.6-.34-5.41l-11.59-.28-.26-5.71-11.02.09-.6-5.56-11.01-.03-.4-5.79-4.81-.22c-1.17-.05-.79-3.61-.52-5.33l-11.76-.33.18-5.75-11.56.35-.2-6.01-10.89.04-.36-5.6-4.9-.34c-1.29-.09-.7-4.49-.72-5.32l-5.2-.65c-1.09-.14-.78-3.47-.68-5.2l-11.18-.3-.38-5.56-5.65-.25-.19-5.51-4.87-.23c-1.11-.05-.6-3.76-.42-5.18l-5.78-.56-.53-4.5c-.13-1.12-3.42-.86-4.96-.73l-.35-5.75-5.69-.3-.21-11.16-5.62-.36.04-11.07-5.57-.41-.1-11.08-5.72-.62-.12-10.81-5.5-.28-.1-22.68,5.66-.17.14-11.21,5.69-.35-.08-10.92,5.73-.7-.03-10.99,5.71-.22.07-10.9,5.72-.78.06-10.95,5.48-.48-.04-10.67-5.54-.44.19,11.46-5.25.2c-1.12.04-.86,3.4-.67,5.18l-5.74.64-.19,11.08-5.52.11-.36,5.17c-.08,1.09-3.77.65-5.21.65l-.22,11.17-5.68.38-.06,4.92c-.01,1.13-3.49.73-5.44.44l-.21,11.23-5.81.35.32,5.57-5.88.24-.03,10.99-5.56.49-.3,4.9c-.07,1.15-3.21.89-5.6.49l-.16,11.31-5.44.57-.02,11.04-5.8.22-.34,5.7-4.89.16c-1.14.04-.65,3.44-.38,5.32l-5.86.49-.09,11.05-5.68.31-.3,11.13-4.75.5c-1.11.12-.9,3.25-.78,5.26l-5.51.19-.25,11.12-4.63.42c-1.12.1-.94,3.15-.68,5.15l-5.99.62.03,11.15-5.65.11-.06,5.71-5.75.06-.03,11.4-5.65.24-.59,4.82c-.13,1.07-3.67.83-5.25.77l-.34,11.39-4.79.39c-.89.07-.65,2.98-.68,4.77-.47.29-2.95.53-5.44.74l-.41,11.07-4.6.55c-1.12.13-.98,3.11-.86,5.26l-5.88.22-.1,4.86c-.02,1.11-3.23.81-5.47.55l-.03-205.61,5.68-.5v-16.8s5.67-.37,5.67-.37l.07-11.31,4.89-.37c1.12-.08.8-3.26.51-5.25l6.12-.34.02-11.14,5.28-.25.81-5.65c2.08.08,4.89.29,4.95-.65l.29-4.68,5.72-.18.07-11.64,11.45-.02.24-5.65,22.61-.02.39-5.66,51.05.02-.29-5.8-262.61.03-.42-11.4,4.9-.42c.89-.08.73-2.54.68-4.61l5.56-1.13.47-5.23,5.55-.39.34-4.95c.08-1.11,3.78-.66,5.11-.46l.76-5.57,10.95-.12-.16,4.94c-.04,1.11-3.42.6-5.31.34l-.56,5.8-4.42.44c-1.15.12-1.06,3.11-.79,5.45l-11.39.07.03,5.73,286.09.02-.06-11.48,4.92.04c1.13,0,1.09-3.32.87-4.52-.21-1.11-2.12-1.25-5.34-1.18l-.54-11.12-5.27-.43-.15-11.4-5.68-.26-.36-10.85-4.45-.43c-1.08-.1-.94-2.83-.67-5.15l-6.01-.68v-10.91s-5.72-.43-5.72-.43l-.15-4.88c-.04-1.16-3.44-.84-5.59-.54l-.2-11.82-5.72-.16-.07-10.92-4.82-.37c-1.09-.08-.9-2.96-.62-5.41l-11.57-.33-.13-5.47-11.41.02-.05-5.79-51.43.02-.18,5.77-22.61-.11-.5,5.75-10.95.06-.47,5.68-4.92.2c-1.13.05-.55,3.71-.28,5.46l-11.49.25-.43,5.44h-4.93c-1.13,0-.83,3.25-.55,5.37l-5.67.57.29,5.49-11.62.14-.53,5.59-11.24-.02.12-4.83c.03-1.1,3.14-.92,5.32-.65l.72-5.77,5.21-.24.36-5.56,11.06-.04.37-4.73c.09-1.1,3.11-.83,5.21-.56l.5-6.16,11.6-.15.24-5.02c.04-.92,2.94-.65,4.67-.46l.9-5.52,10.92-.2.46-5.74,11.09-.11.26-5.68,16.74.02.29-5.68,50.81-.03.57,5.69,17.23-.04.14,5.75,5.62.23.16,5.61,4.71.39c1.16.1.93,3.68.73,5.06l5.89.37.04,11.32,5.9.32.04,11.05,5.67.12.03,5.57,5.59.37.02,11.32,5.52.63.03,10.19,5.75.1.06-16.71-5.7-.39v-11.03s-5.8-.05-5.8-.05l.05-11.18-5.66-.31.04-17.16-5.66-.27.03-11.3-5.91-.1.08-16.73-5.67-.35-.11-17.06-5.94-.33.08-11.09-5.71-.29.18-16.77-5.72-.51-.07-16.55-5.83-.51.09-10.98-5.77-.51.02-16.87-5.65-.15.05-11.36-5.76-.12v-16.74s-5.69-.61-5.69-.61v-16.71s-5.63-.19-5.63-.19v-11.18s-5.89-.37-5.89-.37l.03-17.1h17.33s-.18,5.67-.18,5.67l11.27.03.23,5.77,11.16-.05.09,5.87,11.27-.11.45,5.68,11.14.02.2,5.79,11.05-.06.5,5.58,4.78.33c1.15.08.93,3.29.68,5.39l11.31.5.39,4.63c.09,1.12,3.38.87,5.2.66l.79,5.6,4.51.38c1.12.1.81,3.41.52,5.39l11.81.3c-.15,1.55-.45,5.05.63,5.19l4.96.66.11,4.15c.03,1.11,2.54,1.3,5.16,1.28l.84,5.69,11,.1.27,5.66,4.73.35c1.17.09.99,3.45.76,5.08l5.78.43.11,4.99c.03,1.13,3.16.9,5.3.63l.52,5.67,5.56.13.22,5.6c2.05.07,3.71.06,4.58.35,1.09.36.86,3.48.8,5.18l5.69.52.19,4.85c.04,1.14,3.55.63,5.44.32l.52,6.01,5.51.06-.09,11.36,5.83.27-.02,11,5.56.45v22.63s5.84.12,5.84.12l-.14,34.46-5.46.23-.31,4.81c-.07,1.12-3.59.52-5.34.32l-.17,11.44ZM418.21,251.93l-.04,6.06,5.61.04.04-6.06-5.61-.04ZM423.7,263.57l-.05,5.83,5.91.05.05-5.83-5.91-.05ZM492.15,360.44c.28-.62.91-5.21-.36-5.13l-4.61.26c-1.06.06-.54,4.24.49,4.46l3.94.84.53-.43ZM435.31,365.53c0-1.27-.34-3.97-1.26-4.75s-4.37.05-4.61,1.23-.21,4.41.99,4.44l4.04.09.84-1.01ZM492.69,360.87l-.2.92.09,10.24h4.99s.68-.44.68-.44v-10.61s-5.55-.12-5.55-.12ZM498.69,372.11l-.38.58-.05,10.94,5.15-.02h.72s-.11-11.3-.11-11.3l-5.33-.2Z"/>
            <path d="M515.24,229.18l.18-11.83,5.69-.33c-.01-2.73.13-5.03,1.25-5.03h4.18s.42-5.25.42-5.25c.09-1.14,3.57-.93,5.48-.69l.45-10.8,5.64-.56v-5.63s5.93-.31,5.93-.31c-.24-1.57-.82-5.11.27-5.24l5.01-.63c.06-.86-.16-4.29.93-4.45l4.7-.68.62-5.82,5.36-1.05.3-10.55c2.1.09,5.2.43,5.25-.65l.22-4.87,5.55-.63c.07-.81-.18-4.69.85-4.9l4.83-.98.48-10.56,5.42-.91c-.09-2.11.03-4.81,1.14-4.83l4.58-.07.07-6.06,5.51-.37.3-10.93c1.46.01,4.96.34,5.11-.73l.64-4.78,5.56-.87c-.17-1.94-.4-4.6.48-4.69l4.68-.46.8-5.36,5.66-.67c-.25-2.14-.39-5.28.74-5.39l4.65-.49.37-10.69,5.46-.4.07-5.41,5.95-.55c-.26-2.03-.55-5.36.56-5.38l4.77-.08-.15,11.64c-1.66-.16-4.96-.41-5.1.69l-.63,5.02-5.56-.02c.16,1.94.52,5.21-.56,5.33l-4.54.49-.46,11.4c-1.79-.16-5.32-.38-5.45.73l-.59,4.84-4.73.53c-1.08.12-.77,3.82-.66,4.92l-5.73.36-.34,5.57-5.42.28-.41,11.11c-2.81-.08-5.29.08-5.31,1.19l-.1,4.49-5.53.17-.62,5.9c-1.96-.23-5.07-.45-5.11.69l-.19,4.97-5.68-.29-.39,11.58c-1.27-.05-4.99-.39-5.1.72l-.53,5.12c-.89.04-5.19-.53-5.29.79l-.38,5.07-5.52-.39-.13,11.66c-1.6-.12-5.05-.38-5.16.74l-.47,4.69-5.31.68-.48,5.54-4.98.35c-.91.06-.52,3.11-.32,4.7l-6.07.6-.03,11.31-5.99.36c.2,1.83.44,5-.69,5.09l-4.53.37-.6,5.88c-1.74-.27-5.03-.73-5.05.38l-.09,5.09-6.12.21Z"/>
            <rect x="555.59" y="503.86" width="5.95" height="11.58" transform="translate(-1.33 1.46)"/>
            <g>
              <g>
                <path d="M710.21,262.86l-11.01.22-.24-5.43-5.68.13-.67-5.63-11.09-.33-.57-4.9c-.13-1.1-3.91-1.47-4.49-.52-.58.95-.59,2.88-.68,5.35l-5.73.42-.03,11.26,11.76-.11.03,5.73,4.74.24c1.14.06.79,3.41.48,5.53l11.98.27-.06,11.21,11.11-.08-.09,5.98,5.73-.18.82,5.63h11.04s.52,5.02.52,5.02c.12,1.13,3.28.84,4.8.7l.19,5.82,11.32-.07.43,5.47h21.98s.91-5.49.91-5.49c1.69,0,5.07.34,5.78.6l.33,4.84c.06.87,3.6-.12,4.35.32,1.25.74.96,4.73-.02,5.76h-56.12s-.6-5.52-.6-5.52l-4.78-.18c-1.1-.04-.55-3.39-.23-5.51l-11.68-.26-.31-5.78-4.89-.16c-1.17-.04-.62-3.84-.33-5.38l-6.17-.24-.3-5.63-10.96-.06-.36-5.56-4.84-.2c-1.18-.05-.77-3.56-.49-5.29l-5.73-.6-.31-5.32-11.27.06-.07-17.19,5.73-.49-.06-11.15,5.7-.06.2-11.45,11.31.22.37,4.95c.08,1.14,3.44.88,5.16.67l.36,5.83,11.32-.09.2,5.69,5.56.2.36,4.64c.09,1.16,3.36.91,5.13.73l.16,5.37Z"/>
                <path d="M767.7,309.09l-11.65.06.03-5.56-5.14.06c-.98.01-.67-3.46-.51-4.77l-6.31-1.76c.08-1.47.25-4.63-.8-4.77l-4.14-.54-.81-5.58c-1.97.2-5.02.5-5.09-.61l-.32-4.89-10.84-.43c-1.19-.05-.89-4.22-.25-4.96l-5.92-.75c.24-1.71.64-5.16-.51-5.19l-5.03-.14-.19-6.4,11.62.69c-.31,2.35-.56,5.53.59,5.57l5.03.16.36,5.61,10.57.25.22,5.19,6.13.56c-.24,2.16-.48,5.09.65,5.18l4.74.41.43,5.78c1.82-.27,5.12-.63,5.17.48l.19,4.85,5.89.54c-.13,1.39-.43,4.91.65,5.02l5.12.54.13,5.4Z"/>
                <path d="M177.38,274.81l-5.33.4c-1.04.08-.32,3.05.15,4.98l-11.57.53c-.3-1.79-.78-5.29.32-5.41l4.81-.53.53-4.99c.12-1.12,3.69-.84,5.17-.7l.86-5.36,5.22-1c0-1.45-.41-4.57.51-4.61l4.87-.18.29-5.93h11.18s.49-5.29.49-5.29l5.49-.87.48-4.63c.11-1.06,3.21-.75,4.83-.6l.79-5.78,10.9-.05v4.91c0,1.12-3.68.73-5.12.6l-.44,5.83-4.96.19c-1.16.04-.84,3.47-.53,5.43l-5.68.52-.38,5.25-11.17.13-.23,5.75-4.92.04c-1.15.01-.86,3.32-.6,5.25l-5.73.71-.21,5.41Z"/>
              </g>
              <path class="cls-3" d="M418.21,251.93c1.87.01,3.74.02,5.61.04"/>
            </g>
          </g>
          <g>
            <path d="M251.99,503.37l-.05,57.69-5.08.05c-.93,0-.68-2.97-.57-4.96l-5.51-.56-.37-5.97-11.41-.06-.17-5.54-4.99-.18c-1.16-.04-.74-3.54-.41-5.57l-11.45-.3-.2-5.44-5.02-.4c-1.13-.09-.91-3.89-.74-5.19l-11.12-.32-.25-4.46c-.06-1.06-2.63-1.13-4.98-1.03l-1.12-5.95c-1.56.18-4.19.68-4.61-.11-.52-.99-.65-3.13-.87-5.3l-10.95-.1-.34-5.91-4.91-.07c-1.13-.02-.82-3.25-.53-5.16l-5.8-.58-.14-5.51-5.57-.03-.51-4.84c-.12-1.1-3.36-.86-5.18-.7l-.55-5.83-11.11-.07-.17-5.63-5.63-.26-.18-5.6-4.67-.36c-1.16-.09-.97-3.53-.75-5.19l-5.77-.46-.28-5.3-4.98-.31c-1.11-.07-.61-3.63-.36-5.29l-5.79-.49-.34-4.64c-.09-1.16-3.64-.88-5.17-.66l-.51-5.86-4.82-.14c-1.11-.03-.59-3.42-.3-5.29l-6.3-.53.04-5.5-5.32-.37c-1.05-.07-.23-3.31.11-4.8l-5.88-.87-.42-5.44c-1.89.28-5.42.7-5.51-.42l-.41-4.97-4.98-.57c-1.09-.13-.48-3.8-.23-5.28l-5.76-.69-.2-11.13-4.93-.06c-1.14-.01-.83-3.31-.56-5.13l-5.65-.54-.45-4.6c-.11-1.12-3.07-.99-5.25-.83l-.51-11.34-4.6-.42c-1.12-.1-.9-3.2-.68-5.12l-5.87-.56-.07-11.11-5.6-.21-.02-11.51-5.83-.04-.14-11.06-5.48-.33-.05-11.37-5.73-.17.13-11.25-5.89-.16-.03-22.59-5.68-.49v-68.04s5.76-.75,5.76-.75l-.06-16.74,5.9-.2-.13-11.23,5.61-.23.34-11.32c1.44.07,4.97.43,5.11-.64l.62-4.83,4.86-.62c1.09-.14.73-3.66.59-5.03l5.62-.45.31-5.05c.07-1.1,3.77-.73,5.34-.49l.49-5.69,4.67-.36c1.13-.09.9-3.35.66-5.21l5.54-.74.37-4.56c.09-1.14,3.42-.84,5.29-.52l.56-5.93,11,.02.48-5.9c1.44.25,4.83.85,4.94-.05l.7-5.48,10.91-.17.45-5.55,11.35.13.25-5.88,16.74.04.12-5.8,22.8-.05.45-5.65h34.04s.12-5.76.12-5.76h102.65s.43,5.69.43,5.69l45.42.03.38,5.76,22.71-.09.36,5.84,11.16-.21.11,11.34,5.81.34-.14,16.91,5.81.39-.07,11.12,5.63.17.03,11.29-16.93.18-.26-5.87-28.31.03-.34-5.64-39.77.02-.15-5.85h-80.17s-.09,5.87-.09,5.87l-28.54-.09-.2,5.66-16.95-.02-.29,5.9-11.23-.06-.3,5.61-11.2.17.03,5.71-11.19.02-.34,5.55-11.48.08-.14,5.79-5.51.19-.3,4.78c-.07,1.16-3.39.96-5.08.72l-.47,5.95-4.95.07c-1.12.02-.87,3.06-.57,5.17l-5.83.44v11.11s-5.91.16-5.91.16l.11,11.46-5.64.33.03,16.81-5.87.2v45.54s5.92.27,5.92.27l-.04,22.61,5.55.27v11.12s5.88.16,5.88.16l-.11,17.12,5.64.41.21,11.09,5.63.17.4,5.56c1.81-.24,5.14.18,5.29,1.29l.09,10.15,5.1.24c1.14.05.68,3.34.39,5.14l5.98.59.02,10.98,5.51.57.2,5.43,4.93.17c1.14.04.76,3.46.48,5.22l5.87.53.58,5.22c.11,1,4.32-.34,4.57.65l1.17,4.61c.26,1.04,3.38.85,4.88.8l.52,5.9,4.91.07c1.1.02.79,3.42.52,5.16l5.97.72c-.11,1.23-.44,4.76.63,4.91l4.81.67.59,4.83c.13,1.09,3.75.71,5.1.57l.48,5.85,4.94.13c1.17.03.72,3.6.43,5.24l5.69.44.38,4.74c.09,1.13,3.41.9,5.17.71l.71,5.72,4.62.36c1.11.09.91,3.04.66,5.22l5.75.48.56,5c.12,1.04,3.38.59,4.74.44l.81,5.75,11.27.22.17,5.56,4.92.09c1.14.02.62,3.55.32,5.35l5.84.38.44,5.67,11.15-.19.23,5.82,5.56.21.12,4.88c.02.87,2.97.33,5.58.17ZM200.22,131.76l.43-5.86,85.73-.06.03,5.81,34.33.03-.23,5.64,28.8.15.07-11.12-5.71-.33-.33-5.83h-22.67s-.28-5.69-.28-5.69l-22.74.05-.15-5.65c-6.19,1.25-12.41-.06-19.29-.07l-117.75-.15-.2,5.89-22.85-.08-.24,5.78-22.85-.04.07,17.13,5.87.08.25,11.41c1.97-.19,4.86-.58,4.89.3l.15,5.07,5.88.24.51-6.07c2,.31,5.17.66,5.25-.46l.36-4.91,16.97.12.11-5.78,22.88.03.04-5.79,22.66.15ZM234.76,526.84l-.2,5.67,5.97.31.13-22.87-5.93-.5.67-5.66-6.53.2.31-5.61-6.71-.6.78-5.05-11.53-.44c.07-1.93.1-5.15-.99-5.29l-4.67-.62-.02-5.55c-2.13.24-5.1.6-5.23-.45l-.54-4.34-8.04-.2c-.96-.02-3.78-.57-3.64-1.5l.64-4.32-5.98-.67c.24-1.64.69-5.31-.45-5.35l-4.94-.18-.33-5.72-5.56.04-.08-6c-2.19.24-5.31.54-5.39-.59l-.31-4.65-5.84-.51c.2-1.67.58-5.24-.56-5.32l-4.84-.32-.44-5.59-5.95.06-.05-5.87-4.53.24c-1.03.06-.72-3.1-.55-5.3l-5.91-.72-.21-5.39-5.74-.35c.06-1.28.28-4.42-.75-4.6l-4.79-.86-.38-10.94-5.43-.97c.14-1.78.29-4.72-.76-4.83l-4.6-.47-.61-4.78-5.57-1.2c.16-1.75.32-4.81-.78-4.93l-4.92-.55-.81-11.54c-.76.07-4.71.49-4.79-.63l-.35-4.81-5.45-.19v-11.27s-5.75-.39-5.75-.39l.09-10.61-6.02-.91.41-10.96-5.99-.25.06-17.05-5.76-.26.05-17.41-5.75.32-.2-40.44c-1.79.24-5.18.62-5.27-.48l-.37-4.49-5.61-.2-.03-17.53-5.96-.2.17-11.01-6.08-.1.67-11.03-5.89-.41.07-11.47-5.95.05.12-11.33-5.24.05-.47,11.18-5.79.12.17,17-5.88-.04-.09,23.36-5.45-.26-.25,16.92,5.83.09v17.66s5.88-.16,5.88-.16l-.14,11.26,6.26.19-.81,11.01,5.83-.17-.04,11.85,5.89.12-.03,11.66,5.85-.36-.14,11.6,5.5-.04.11,11.66,5.8-.15v11.59s5.86-.02,5.86-.02l-.14,11.19h11.3s.37,11.6.37,11.6c2.33-.29,5.51-.54,5.53.65l.08,4.97,5.88.2c-.18,1.86-.43,5.3.71,5.37l4.89.34.73,11.57c2.2-.26,4.75-.48,4.78.45l.13,4.33,5.55.8.47,5.54,5.88.43c-.33,1.95-.64,5.21.48,5.27l4.62.25.53,5.86c2-.22,5.12-.53,5.2.58l.31,4.6,5.87.39c-.3,1.95-.62,5.21.51,5.3l4.57.33.71,5.91c1.68-.2,5-.6,5.09.5l.35,4.55,5.86.44c-.33,1.74-.78,5.45.41,5.5l5.06.21.27,5.83,5.67-.26.07,6.22c1.88-.34,5.39-.8,5.45.39l.24,4.87,5.79.67c-.11,1.21-.54,4.93.56,5.03l4.96.44.43,5.04c.1,1.13,3.78.7,5.31.45l.3,5.81c2.17-.19,5.15-.45,5.24.66l.36,4.74,11.51.27c-.24,2-.4,5.44.74,5.5l4.64.25-.12,5.75,11.63.02.56,6.08c1.9-.28,5.51-.57,5.41.44l-.45,4.61,6.03.27-.11,5.56,12.01.31c-.35,2.24-.76,5.47.4,5.5l4.93.11Z"/>
            <path class="cls-2" d="M234.76,526.84l-4.93-.11c-1.17-.03-.75-3.26-.4-5.5l-12.01-.31.11-5.56-6.03-.27.45-4.61c.1-1.01-3.51-.72-5.41-.44l-.56-6.08-11.63-.02.12-5.75-4.64-.25c-1.15-.06-.99-3.5-.74-5.5l-11.51-.27-.36-4.74c-.08-1.11-3.07-.85-5.24-.66l-.3-5.81c-1.53.25-5.21.68-5.31-.45l-.43-5.04-4.96-.44c-1.1-.1-.66-3.81-.56-5.03l-5.79-.67-.24-4.87c-.06-1.19-3.57-.72-5.45-.39l-.07-6.22-5.67.26-.27-5.83-5.06-.21c-1.19-.05-.73-3.76-.41-5.5l-5.86-.44-.35-4.55c-.08-1.1-3.41-.7-5.09-.5l-.71-5.91-4.57-.33c-1.13-.08-.81-3.35-.51-5.3l-5.87-.39-.31-4.6c-.08-1.11-3.2-.8-5.2-.58l-.53-5.86-4.62-.25c-1.12-.06-.8-3.32-.48-5.27l-5.88-.43-.47-5.54-5.55-.8-.13-4.33c-.03-.93-2.57-.71-4.78-.45l-.73-11.57-4.89-.34c-1.14-.08-.89-3.51-.71-5.37l-5.88-.2-.08-4.97c-.02-1.18-3.2-.94-5.53-.65l-.37-11.6h-11.3s.14-11.19.14-11.19l-5.86.02v-11.59s-5.8.15-5.8.15l-.11-11.66-5.5.04.14-11.6-5.85.36.03-11.66-5.89-.12.04-11.85-5.83.17.81-11.01-6.26-.19.14-11.26-5.88.16v-17.66s-5.84-.09-5.84-.09l.25-16.92,5.45.26.09-23.36,5.88.04-.17-17,5.79-.12.47-11.18,5.24-.05-.12,11.33,5.95-.05-.07,11.47,5.89.41-.67,11.03,6.08.1-.17,11.01,5.96.2.03,17.53,5.61.2.37,4.49c.09,1.1,3.48.72,5.27.48l.2,40.44,5.75-.32-.05,17.41,5.76.26-.06,17.05,5.99.25-.41,10.96,6.02.91-.09,10.61,5.73.39v11.27s5.47.19,5.47.19l.35,4.81c.08,1.12,4.03.7,4.79.63l.81,11.54,4.92.55c1.1.12.94,3.18.78,4.93l5.57,1.2.61,4.78,4.6.47c1.05.11.89,3.05.76,4.83l5.43.97.38,10.94,4.79.86c1.03.19.82,3.32.75,4.6l5.74.35.21,5.39,5.91.72c-.17,2.21-.48,5.36.55,5.3l4.53-.24.05,5.87,5.95-.06.44,5.59,4.84.32c1.14.08.76,3.65.56,5.32l5.84.51.31,4.65c.07,1.13,3.19.83,5.39.59l.08,6,5.56-.04.33,5.72,4.94.18c1.14.04.69,3.71.45,5.35l5.98.67-.64,4.32c-.14.94,2.68,1.48,3.64,1.5l8.04.2.54,4.34c.13,1.05,3.1.69,5.23.45l.02,5.55,4.67.62c1.09.14,1.06,3.37.99,5.29l11.53.44-.78,5.05,6.71.6-.31,5.61,6.53-.2-.67,5.66,5.93.5-.13,22.87-5.97-.31.2-5.67Z"/>
            <path class="cls-2" d="M200.22,131.76l-22.66-.15-.04,5.79-22.88-.03-.11,5.78-16.97-.12-.36,4.91c-.08,1.12-3.25.77-5.25.46l-.51,6.07-5.88-.24-.15-5.07c-.03-.88-2.91-.49-4.89-.3l-.25-11.41-5.87-.08-.07-17.13,22.85.04.24-5.78,22.85.08.2-5.89,117.75.15c6.88,0,13.1,1.32,19.29.07l.15,5.65,22.74-.05.28,5.7h22.67s.33,5.82.33,5.82l5.71.33-.07,11.12-28.8-.15.23-5.64-34.33-.03-.03-5.81-85.73.06-.43,5.86Z"/>
          </g>
        </g>
        <g>
          <path d="M326.56,606.88l-.23-5.51-5.36-.43c-1.01-.08-.26-3.28.12-5.12l-11.76-.46-.23-5.53-11.39.05-.11-11.11,5.83-.39.09-4.99c.02-1.16,3.18-.92,5.23-.66l.52-5.98,5.8-.08.02-10.89,5.6-.45.2-5.57,11.21-.02.17,5.81,11.01-.08.29,5.75,11.21.07.47,5.66,11.1-.03.15,5.75,11.25-.02.36,5.8,16.95.02.33,5.7h10.97s.28,5.52.28,5.52l17.21.03.19,6.03,11.01-.06.03,5.7,17.19-.16.24,5.74,17.14.05-.09,5.72,17.29.17.07,5.54,22.4-.06.4,5.89,22.8-.08.53,5.73,28.11.03.3,5.64,39.51-.08.43,5.92,91.47-.03.34-5.87,39.66.02.21-5.45,17.37-.22c-.19-1.52.29-5.22,1.37-5.4l9.58-.27.61-5.77,11.03.03.27-5.75,17,.13.21-5.93c1.87.14,5.31.45,5.43-.63l.57-4.79,4.79-.69c1.07-.15.76-3.59.67-4.95l5.55-.31.34-5.19c.07-1.12,3.89-.56,5.5-.29l.46-5.79,4.54-.36c1.15-.09.84-3.7.66-5.15l5.89-.47.05-4.96c.01-1.17,3.42-.8,5.5-.47l.15-11.44,5.57-.52v-22.52s5.97-.48,5.97-.48l-.02-56.46-5.97-.49.03-22.76-5.63-.31-.06-11.42-5.77.03.06-11.2-5.68-.27-.12-10.97-4.64-.44c-1.09-.1-1-2.89-.76-5.23l-5.85-.48-.2-11.32-4.4-.23c-1.07-.06-1.16-2.54-1.18-4.94l-5.61-.64-.36-5.18c-.08-1.12-3.97-.72-5.22-.69l-.39-11.36c-1.61.17-5.32.84-5.32-.26v-4.75c-.01-1.09,3.54-.75,5.24-.51l.43-5.85,4.71-.28c1.1-.07.89-3.02.65-5.3l11.34-.42.31-4.71c.08-1.17,3.49-.96,5.34-.65l.73-5.77,10.85-.04.08,5.54,5.65.41.36,4.66c.09,1.15,3.44.94,5.44.73l.32,5.93c1.43-.27,5.22-.82,5.31.29l.4,4.91,5.06.63c1.12.14.6,3.82.36,5.28l5.73.52.49,4.54c.12,1.12,3.86.72,5.2.71l.39,11.66,4.87.28c1.13.06.65,3.84.4,5.23l5.76.6.44,4.59c.11,1.12,3.28.85,5.36.68l.06,11.27,5.75,1c-.03,1.22-.47,4.49.38,4.57l5.21.47.21,11.19,5.53.13.13,11.31,5.72.45.21,11.09,5.59.27v11.06s5.61.18,5.61.18v16.96s5.84.31,5.84.31v22.55s5.77.57,5.77.57l-.08,56.97-5.86.31.21,22.46-5.85.46-.18,11.24-5.08.06c-1.11.01-.61,3.36-.32,5.17l-5.87.56-.09,10.91-5.64.65-.15,5.56-4.82.14c-1.09.03-.62,3.37-.38,5.16l-6.07.73c.1,1.03.28,4.61-.77,4.83l-4.71,1-.84,4.47c-.2,1.06-3.47.99-4.64.91l-.44,5.64h-11.41s-.25,5.52-.25,5.52l-4.66.57c-1.1.13-.94,3.1-.82,5.16l-11.27.18-.41,5.62-11.16.11-.26,5.75-11.49-.12-.06,5.94-16.88-.08-.36,5.58-22.53.05-.34,5.74-45.71-.03-.32,5.77-125.62.07-.31-5.85h-45.47s-.12-5.69-.12-5.69l-22.59.02-.49-5.67-16.9-.04-.2-5.78-22.74-.04-.24-5.71-16.87.03-.06-5.75-17.02.04-.36-5.69-16.82.06-.35-5.77-17.09.04-.21-5.88-11.15.08-.34-5.59h-16.8s-.27-5.78-.27-5.78l-11.27-.03-.31-5.89-16.94.07-.12-5.6-11.09-.11-.31-5.53-11.35-.09-.11-5.85-11.21.02-.41-5.62-11.15-.18ZM779.26,675.72l22.56-.04.14-5.64,11.66-.13.19-5.82,11,.05.27-5.49h10.84s.35-5.68.35-5.68l11.87-.34c-.26-2.36-.64-5.46.45-5.51l4.85-.24v-5.43c1.7.13,5.39.7,5.48-.4l.44-5.34,11.42-.47c-.13-2.2-.35-5.13.72-5.17l4.92-.19.46-5.73c1.53.17,4.96.34,5.05-.82l.37-5.11,5.53-.06.37-11.32c2.19.26,5.45.52,5.48-.62l.12-4.86,5.42-.02.17-11.71c1.74.29,5.3.74,5.38-.41l.37-4.88,5.49-.15.13-17.02,5.46-.47-.05-45.26-5.42-.77-.05-22.39-5.73-.37v-16.87s-5.71-.22-5.71-.22l-.11-10.6-5.81-.95.41-11.38-5.83.13-.03-11.2-5.73-.2-.1-11.54-5.88-.11.4-4.8-5.75-.74-.18-11.69c-2.1.29-5.39.69-5.52-.37l-.51-4.16-5.47-1.12c.12-1.72.23-4.81-.86-4.96l-4.8-.66v-5.53s-5.56-.16-5.56-.16l-.25-11.22-5.6-.39-.11-4.96-5.85-1c.1-1.76.24-4.94-.85-5.03l-4.5-.36-.22-5.93c-1.98.28-5.35.72-5.46-.37l-.43-4.27-10.52-.63-.67,5.36-11.56.06-.07,5.65-5.79.49,1.38,5.94c1.7-.27,4.41-.53,4.45.38l.21,4.72,6.02.44c-.3,1.68-.83,5.21.3,5.23l5.08.06-.3,5.66,5.96.71c-.23,1.82-.58,4.82.35,4.84l5.21.09.2,11.79,5.72.02.09,5.93,5.66-.21.25,11.1,5.55.21-.19,11.09,5.85.25-.07,11.59,5.89.18.02,28.37,5.68.46.14,21.88-.22,35.03-5.64.02-.08,17.46-5.75-.61.06,11.97-5.82-.07v11.68s-5.31-.58-5.31-.58l-.55,6.24c-1.29-.25-5.38-.83-5.4.32l-.07,5.15-5.97.45c.05,2.05.26,5.24-.67,5.22l-4.63-.13-.6,5.93-10.78-.06-.44,6.06c-2.05-.36-5.65-.84-5.66.33v5.17s-11.11.03-11.11.03l-.47,5.95-10.99-.15-.45,5.48-16.92-.11-.29,5.95-11.58.06.23,11.1,5.61.29v5.59s5.95.07,5.95.07l-.11,11.02,5.91.44-.27,11.14,6.02.47c-.03,2.17-.26,4.01.28,4.97s3.44.86,4.31.17c.73-.57.97-2.77,1.19-5.29ZM687.49,681.01c-.18-1.26.17-5.23-1-5.27l-5.1-.19-.06-5.57-17.3-.29c.19-2.28.4-4.78-.5-4.91l-4.66-.7c-.6-.44-.24-3.37.11-5.28l-5.78-.26-.32-5.76h-80.26s-.48-5.64-.48-5.64l-16.3.29-6.26-.33.5-5.62-28.72-.08-.19-5.72h-22.85s-.09-5.87-.09-5.87l-17.04.08-.02-5.75-17.17.38.05-6.05-17.23.22-.73-5.86-16.57-.13-.13-5.87-11.13.17-.17-5.42-17.08-.16-.16-5.7-11.31-.16-.16-5.83-11.17.13-.64-5.63-10.93.54-.31-6.19-11.14-.26v-5.59s-16.96-.05-16.96-.05l-.08-5.66-5.78-.62c-.09-2.73-.32-4.47-1.39-4.73s-4.48-.33-4.54.77l-.26,4.37h-5.77s0,5.97,0,5.97c-2-.21-5.53-.02-5.37,1.28l.54,4.38c1.82-.32,5.13-.56,5.06.46l-.34,5.01,11.9.3.04,5.63,11.26-.1-.19,6.01,11.75.06c-.13,1.51-.39,4.95.7,5.07l5.06.54-.2,5.46,11.51.09.11,5.89,17.44-.06-.18,5.66,11.36-.16.13,6.04,11.34-.21-.05,5.87,17.18-.15-.2,5.87,17.41-.05.14,5.85,11.23-.06.26,5.73,16.91-.07.04,5.72,17.13-.04-.11,5.91,23.92.23-.74,5.24,17.09-.37.54,6.13,16.79-.02.11,5.85,28.61-.06-.37,5.71,45.74.04.8,5.67,67.2-.14c1.37,0,1.93-5.04.6-5.23l-5.03-.73Z"/>
          <path class="cls-1" d="M779.26,675.72c-.21,2.51-.46,4.72-1.19,5.29-.87.68-3.77.79-4.31-.17-.54-.97-.32-2.8-.28-4.97l-6.02-.47.27-11.14-5.91-.44.11-11.02-5.94-.07v-5.59s-5.62-.29-5.62-.29l-.23-11.1,11.58-.06.29-5.95,16.92.11.45-5.48,10.99.15.47-5.95,11.11-.03v-5.17c0-1.17,3.61-.68,5.66-.33l.44-6.06,10.78.06.6-5.93,4.63.13c.94.03.73-3.17.67-5.22l5.97-.45.07-5.15c.02-1.16,4.11-.57,5.4-.32l.55-6.24,5.33.58v-11.68s5.8.07,5.8.07l-.06-11.97,5.75.61.08-17.46,5.64-.02.22-35.03-.14-21.88-5.68-.46-.02-28.37-5.89-.18.07-11.59-5.85-.25.19-11.09-5.55-.21-.25-11.1-5.66.21-.09-5.93-5.72-.02-.2-11.79-5.21-.09c-.92-.02-.57-3.02-.35-4.84l-5.96-.71.3-5.66-5.08-.06c-1.13-.01-.59-3.55-.3-5.23l-6.02-.44-.21-4.72c-.04-.91-2.75-.65-4.45-.39l-1.38-5.94,5.79-.49.07-5.65,11.56-.06.67-5.36,10.52.63.43,4.27c.11,1.1,3.48.65,5.46.37l.22,5.93,4.5.36c1.09.09.96,3.28.85,5.03l5.85,1,.11,4.96,5.6.39.25,11.22,5.56.16v5.53s4.79.66,4.79.66c1.09.15.98,3.24.86,4.96l5.47,1.12.51,4.16c.13,1.07,3.42.66,5.52.37l.18,11.69,5.75.74-.4,4.8,5.88.11.1,11.54,5.73.2.03,11.2,5.83-.13-.41,11.38,5.81.95.11,10.6,5.71.22v16.87s5.73.37,5.73.37l.05,22.39,5.42.77.05,45.26-5.46.47-.13,17.02-5.49.15-.37,4.88c-.09,1.16-3.64.7-5.38.41l-.17,11.71-5.42.02-.12,4.86c-.03,1.14-3.28.88-5.48.62l-.37,11.32-5.53.06-.37,5.11c-.08,1.16-3.52.99-5.05.82l-.46,5.73-4.92.19c-1.08.04-.85,2.97-.72,5.17l-11.42.47-.44,5.34c-.09,1.09-3.78.53-5.46.4v5.43s-4.87.24-4.87.24c-1.09.05-.71,3.15-.45,5.51l-11.87.34-.35,5.67h-10.84s-.27,5.51-.27,5.51l-11-.05-.19,5.82-11.66.13-.14,5.64-22.56.04Z"/>
          <path class="cls-2" d="M687.49,681.01l5.03.73c1.33.19.76,5.23-.6,5.23l-67.2.14-.8-5.67-45.74-.04.37-5.71-28.61.06-.11-5.85-16.79.02-.54-6.13-17.09.37.74-5.24-23.92-.23.11-5.91-17.13.04-.04-5.72-16.91.07-.26-5.73-11.23.06-.14-5.85-17.41.05.2-5.87-17.18.15.05-5.87-11.34.21-.13-6.04-11.36.16.18-5.66-17.44.06-.11-5.89-11.51-.09.2-5.46-5.06-.54c-1.09-.12-.83-3.56-.7-5.07l-11.75-.06.19-6.01-11.26.1-.04-5.63-11.9-.3.34-5.01c.07-1.02-3.24-.78-5.06-.46l-.54-4.38c-.16-1.3,3.37-1.48,5.37-1.28v-5.98s5.77.01,5.77.01l.26-4.37c.06-1.1,3.45-1.03,4.54-.77s1.29,2,1.39,4.73l5.78.62.08,5.66,16.96.05v5.59s11.15.26,11.15.26l.31,6.19,10.93-.54.64,5.63,11.17-.13.16,5.83,11.31.16.16,5.7,17.08.16.17,5.42,11.13-.17.13,5.87,16.57.13.73,5.86,17.23-.22-.05,6.05,17.17-.38.02,5.75,17.04-.08.09,5.87h22.85s.19,5.71.19,5.71l28.72.08-.5,5.62,6.26.33,16.3-.29.48,5.64h80.26s.32,5.76.32,5.76l5.78.26c-.34,1.9-.71,4.84-.11,5.28l4.66.7c.9.13.68,2.64.5,4.91l17.3.29.06,5.57,5.1.19c1.18.04.82,4.01,1,5.27Z"/>
        </g>
      </g>
    </g>
    <path class="cls-1" d="M652.87,652.78c33.18-5.21,66.36-10.43,99.55-15.64,8.4,15.15,16.8,30.3,25.2,45.45-32.85,1.65-65.7,3.3-98.55,4.95-8.73-11.59-17.46-23.17-26.2-34.76Z"/>
    <path class="cls-2" d="M63.47,264.09c1.71-20.59,7.46-46.37,25.2-68.4,29.17-36.22,74.3-41.84,72.9-55.8-.58-5.84-9.28-12.89-43.2-18.9-12.39,4.6-30.3,12.52-49.5,26.1-19.4,13.72-32.57,23.03-37.8,37.8-12.55,35.41,29.62,76.56,32.4,79.2Z"/>
    <path class="cls-2" d="M429.77,342.39c-53.55,84.15-107.1,168.3-160.65,252.45,1.16-37.72.59-67.84-.05-87.41-1.96-59.38-7-91.79,13.55-123.19,6.14-9.37,12.74-15.89,16.95-19.65,0,0,0,0,0,0,0,0,8.23-14.4,22.8-24.6,12.7-8.89,26.59-7.05,50.7-10.2,12.07-1.58,29.14-4.72,49.5-11.7,2.4,8.1,4.8,16.2,7.2,24.3Z"/>
    <path class="cls-2" d="M341.57,12.99c6.49,15.93,61.15,150.13,81,201.6,1.35,3.49,3.95,10.31,6.3,19.8,7.72,31.17,4.63,58.5.9,76.5,14.93-17.69,35.57-43.25,58.5-75.6,26.64-37.59,28.98-45.68,29.7-53.1,3.78-38.73-35.26-71.76-73.8-104.4-21.72-18.4-55.49-43.29-102.6-64.8Z"/>
    <path class="cls-2" d="M481.97,319.89c-2.85,6.45-5.7,12.9-8.55,19.35,4.85.96,12.46,3.04,20.25,8.1,14.93,9.71,17.46,21.93,36.45,50.85,9.16,13.95,13.74,20.93,19.35,25.65,17.63,14.84,39.39,16.17,49.5,16.65,14.53.7,45.23-2.1,121.1-47.3,33.8-20.14,59.38-40.25,76-54.4-58.65,6.12-129.45,8.14-208.8-.9-38.1-4.34-73.3-10.67-105.3-18Z"/>
    <circle class="cls-2" cx="452.27" cy="316.29" r="34.2"/>
  </g>
</svg>